# xmcd
#
# Track frame offsets:
#	150
#	19760
#	41359
#	59182
#	72462
#	90979
#	106959
#	131895
#	149553
#	163364
#	188104
#	200918
#	218640
#	235369
#	251062
#	267423
#	283662
#	304624
#	319495
#	336074
#
# Disc length: 4756 seconds
# Revision: 0
# Processed by: cddbd v1.5.2PL0 Copyright (c) Steve Scherf et al.
# Submitted via: dBpowerAMP V12.0
#
DISCID=45129214
DTITLE=Various Artist - Topcat Records 20th Anniversary Extravaganza
DYEAR=2012
DGENRE=Blues
TTITLE0=Calvin Owens - True Blue
TTITLE1=Bugs Henderson - She Feels Good
TTITLE2=Solon "Fishbone" Coelho - What's on Your Mind
TTITLE3=Robin "Texas Slim" Sullivan - Welcome to the Game
TTITLE4=Holland K. Smith - Walkin' Heart Attack
TTITLE5=Rocky Athas - Texas Girl
TTITLE6=Fernando Noronha - White Trash
TTITLE7=Skip Clay - Saint Peter Have Mercy
TTITLE8=Keller Thomas - Leopard Skin Mini Skirt
TTITLE9=Bob Kirkpatrick - Remeber
TTITLE10=Cold Blue Steel - The Girl That Radiates
TTITLE11=Kenny Traylor - Sneakin' Around
TTITLE12=Alan Haynes - Oh My Baby's Gone
TTITLE13=Big Gilson - Tribute to Roy Buchanan
TTITLE14=Robin Sylar - Heart of Stone
TTITLE15=Mike Morgan - Well All Right Then
TTITLE16=Pat Mason - Queen of the Boucherie
TTITLE17=Johnny Mack - Sugar Bee
TTITLE18=U.P. Wilson - Cross Road
TTITLE19=Tutu Jones - The Thrill Is Gone
EXTD=
EXTT0=
EXTT1=
EXTT2=
EXTT3=
EXTT4=
EXTT5=
EXTT6=
EXTT7=
EXTT8=
EXTT9=
EXTT10=
EXTT11=
EXTT12=
EXTT13=
EXTT14=
EXTT15=
EXTT16=
EXTT17=
EXTT18=
EXTT19=
PLAYORDER=
